<?xml version="1.0" encoding="UTF-8"?>
<svg id="Layer_1" data-name="Layer 1" xmlns="http://www.w3.org/2000/svg" width="1240.59" height="276.43" viewBox="0 0 1240.59 276.43">
  <defs>
    <style>
      .cls-1 {
        fill: #428a04;
      }
    </style>
  </defs>
  <g>
    <g>
      <path class="cls-1" d="M578.51,229.4l-4.81.25c-.13-2.48-1.08-4.38-2.83-5.71-1.59-1.19-3.69-1.79-6.3-1.79-2.05,0-3.79.36-5.21,1.09-1.79.93-2.68,2.33-2.68,4.22,0,2.48,1.94,4.25,5.81,5.31,3.61.96,7.21,1.92,10.82,2.88,3.87,1.72,5.81,4.68,5.81,8.88,0,3.51-1.42,6.27-4.27,8.29-2.55,1.79-5.66,2.68-9.33,2.68-4.5,0-8.07-.93-10.72-2.78-2.98-2.12-4.62-5.31-4.91-9.58l5.06-.45c.23,6.02,3.69,9.03,10.37,9.03,2.45,0,4.47-.55,6.05-1.64,1.79-1.26,2.68-3.06,2.68-5.41,0-2.65-1.94-4.52-5.81-5.61-3.61-.93-7.21-1.84-10.82-2.73-3.87-1.55-5.81-4.18-5.81-7.89,0-3.21,1.34-5.74,4.02-7.59,2.38-1.65,5.26-2.48,8.63-2.48,3.87,0,7.03.88,9.48,2.63,2.71,1.92,4.3,4.71,4.76,8.39Z"/>
      <path class="cls-1" d="M595.38,236.95c0-5.56,1.6-10.04,4.79-13.45,3.19-3.41,7.52-5.11,12.98-5.11s9.78,1.7,12.98,5.11c3.19,3.41,4.79,7.89,4.79,13.45s-1.6,10.04-4.79,13.45c-3.19,3.41-7.52,5.11-12.98,5.11s-9.78-1.7-12.98-5.11c-3.19-3.41-4.79-7.89-4.79-13.45ZM600.45,236.95c0,4.2,1.03,7.64,3.08,10.32,2.28,2.98,5.49,4.47,9.63,4.47s7.34-1.49,9.63-4.47c2.05-2.68,3.08-6.12,3.08-10.32s-1.03-7.64-3.08-10.32c-2.28-2.98-5.49-4.47-9.63-4.47s-7.34,1.49-9.63,4.47c-2.05,2.68-3.08,6.12-3.08,10.32Z"/>
      <path class="cls-1" d="M648.78,254.61v-35.33h4.66v31.26h17.62v4.07h-22.28Z"/>
      <path class="cls-1" d="M715.18,219.28v23.72c0,3.97-1.19,7.05-3.57,9.23-2.38,2.18-5.67,3.28-9.88,3.28s-7.49-1.09-9.88-3.28c-2.38-2.18-3.57-5.26-3.57-9.23v-23.72h4.66v22.93c0,6.15,2.93,9.23,8.78,9.23s8.78-3.08,8.78-9.23v-22.93h4.66Z"/>
      <path class="cls-1" d="M742.07,254.61v-31.26h-10.62v-4.07h25.9v4.07h-10.62v31.26h-4.66Z"/>
      <path class="cls-1" d="M774.18,254.61v-35.33h4.66v35.33h-4.66Z"/>
      <path class="cls-1" d="M797.25,236.95c0-5.56,1.6-10.04,4.79-13.45,3.19-3.41,7.52-5.11,12.98-5.11s9.78,1.7,12.98,5.11c3.19,3.41,4.79,7.89,4.79,13.45s-1.6,10.04-4.79,13.45c-3.19,3.41-7.52,5.11-12.98,5.11s-9.78-1.7-12.98-5.11c-3.19-3.41-4.79-7.89-4.79-13.45ZM802.32,236.95c0,4.2,1.03,7.64,3.08,10.32,2.28,2.98,5.49,4.47,9.63,4.47s7.34-1.49,9.63-4.47c2.05-2.68,3.08-6.12,3.08-10.32s-1.03-7.64-3.08-10.32c-2.28-2.98-5.49-4.47-9.63-4.47s-7.34,1.49-9.63,4.47c-2.05,2.68-3.08,6.12-3.08,10.32Z"/>
      <path class="cls-1" d="M850.65,254.61v-35.33h4.71l18.71,27.88h.1s0-27.88,0-27.88h4.37v35.33h-4.66l-18.76-27.86-.1.02v27.84h-4.37Z"/>
      <path class="cls-1" d="M924.54,229.4l-4.81.25c-.13-2.48-1.08-4.38-2.83-5.71-1.59-1.19-3.69-1.79-6.3-1.79-2.05,0-3.79.36-5.21,1.09-1.79.93-2.68,2.33-2.68,4.22,0,2.48,1.94,4.25,5.81,5.31,3.61.96,7.21,1.92,10.82,2.88,3.87,1.72,5.81,4.68,5.81,8.88,0,3.51-1.42,6.27-4.27,8.29-2.55,1.79-5.66,2.68-9.33,2.68-4.5,0-8.07-.93-10.72-2.78-2.98-2.12-4.62-5.31-4.91-9.58l5.06-.45c.23,6.02,3.69,9.03,10.37,9.03,2.45,0,4.47-.55,6.05-1.64,1.79-1.26,2.68-3.06,2.68-5.41,0-2.65-1.94-4.52-5.81-5.61-3.61-.93-7.21-1.84-10.82-2.73-3.87-1.55-5.81-4.18-5.81-7.89,0-3.21,1.34-5.74,4.02-7.59,2.38-1.65,5.26-2.48,8.63-2.48,3.87,0,7.03.88,9.48,2.63,2.71,1.92,4.3,4.71,4.76,8.39Z"/>
      <path class="cls-1" d="M980.86,235.71l5.16,8.93c1.26-2.48,2.08-4.66,2.48-6.55h3.87c-.53,3.11-1.87,6.37-4.02,9.78,1.29,1.79,2.88,2.68,4.76,2.68.66,0,1.16-.03,1.49-.1v4.17c-.43.2-1.14.3-2.13.3-2.48,0-4.81-1.22-7-3.67-2.68,2.45-5.58,3.67-8.68,3.67-2.78,0-5.09-.89-6.95-2.68-1.95-1.85-2.93-4.25-2.93-7.2,0-2.48.83-4.73,2.48-6.75,1.49-1.79,3.46-3.21,5.91-4.27-1.16-2.08-1.74-4.17-1.74-6.25,0-2.55.71-4.6,2.13-6.15,1.42-1.55,3.37-2.33,5.86-2.33,2.05,0,3.77.65,5.16,1.96,1.39,1.31,2.08,2.99,2.08,5.04,0,3.94-2.65,7.08-7.94,9.43ZM983.05,248.26l-6.2-10.72c-3.71,1.52-5.56,3.95-5.56,7.3,0,1.72.58,3.2,1.74,4.44,1.16,1.24,2.56,1.86,4.22,1.86,2.12,0,4.05-.96,5.81-2.88ZM977.64,226.38c0,1.32.55,3.28,1.64,5.86,3.64-1.62,5.46-3.82,5.46-6.6,0-.96-.3-1.73-.89-2.31-.6-.58-1.37-.87-2.33-.87-1.16,0-2.09.36-2.8,1.09-.71.73-1.07,1.67-1.07,2.83Z"/>
      <path class="cls-1" d="M1070.68,229.3l-4.86.89c-.6-2.38-1.94-4.32-4.04-5.81-2.1-1.49-4.47-2.23-7.12-2.23-4.14,0-7.34,1.49-9.63,4.47-2.05,2.68-3.08,6.12-3.08,10.32s1.03,7.64,3.08,10.32c2.28,2.98,5.49,4.47,9.63,4.47,3.04,0,5.62-.96,7.74-2.88,2.12-1.92,3.39-4.45,3.82-7.59l4.91.6c-.79,4.07-2.75,7.36-5.86,9.88-3.11,2.51-6.65,3.77-10.62,3.77-5.46,0-9.78-1.7-12.98-5.11-3.19-3.41-4.79-7.89-4.79-13.45s1.6-10.04,4.79-13.45c3.19-3.41,7.52-5.11,12.98-5.11,3.9,0,7.26.91,10.07,2.73,2.94,1.92,4.93,4.65,5.95,8.19Z"/>
      <path class="cls-1" d="M1087.4,236.95c0-5.56,1.6-10.04,4.79-13.45,3.19-3.41,7.52-5.11,12.98-5.11s9.78,1.7,12.98,5.11c3.19,3.41,4.79,7.89,4.79,13.45s-1.6,10.04-4.79,13.45c-3.19,3.41-7.52,5.11-12.98,5.11s-9.78-1.7-12.98-5.11c-3.19-3.41-4.79-7.89-4.79-13.45ZM1092.47,236.95c0,4.2,1.03,7.64,3.08,10.32,2.28,2.98,5.49,4.47,9.63,4.47s7.34-1.49,9.63-4.47c2.05-2.68,3.08-6.12,3.08-10.32s-1.03-7.64-3.08-10.32c-2.28-2.98-5.49-4.47-9.63-4.47s-7.34,1.49-9.63,4.47c-2.05,2.68-3.08,6.12-3.08,10.32Z"/>
      <path class="cls-1" d="M1141.64,254.61v-5.61h5.06v5.61h-5.06Z"/>
    </g>
    <g>
      <path class="cls-1" d="M549.88,20.92h51.19c26.56,0,48.29,12.07,48.29,48.29v72.44c0,36.22-21.73,48.29-48.29,48.29h-51.19V20.92ZM589,169.18h12.07c5.31,0,9.66-4.59,9.66-10.38V52.07c0-5.79-4.35-10.38-9.66-10.38h-12.07v127.5Z"/>
      <path class="cls-1" d="M661.43,20.92h80.17v24.15h-41.05v48.29h28.98v24.15h-28.98v48.29h41.05v24.15h-80.17V20.92Z"/>
      <path class="cls-1" d="M805.34,54.22v27.07h14.13l-14.13-27.07ZM786.02,61.25v-9.18c0-5.8,4.35-10.38,9.67-10.38,1.23,0,2.4.24,3.48.7l-11.02-21.12c-22.19,2.09-39.85,14.03-40.52,43.6-1.21,49.74,57.95,56.01,57.95,84.75v9.18c0,5.8-4.34,10.38-9.65,10.38s-9.67-4.58-9.67-10.38l-.24-29.7h-38.63v12.55c.24,36.22,21.97,48.3,48.54,48.3s47.57-11.1,48.06-43.95c.72-49.74-57.96-55.05-57.96-84.75Z"/>
      <path class="cls-1" d="M929.27,189.95h-39.36l-88.19-169.03h39.36l88.19,169.03Z"/>
      <path class="cls-1" d="M995.27,93.36v-24.16c0-36.21-21.73-48.29-48.29-48.29s-48.3,12.08-48.3,48.29v35.75l44.29,84.89c1.33.08,2.66.11,4.01.11,26.56,0,48.29-12.08,48.29-48.3v-36.22h-48.29v24.16h9.65v29.21c0,5.8-4.35,10.38-9.65,10.38s-9.67-4.58-9.67-10.38V52.07c0-5.8,4.35-10.38,9.67-10.38s9.65,4.58,9.65,10.38v41.29h38.63Z"/>
      <path class="cls-1" d="M1119.38,189.95h-39.12l-33.81-113.73v113.73h-39.12V20.92h38.15l34.77,115.42V20.92h39.12v169.03Z"/>
    </g>
  </g>
  <g>
    <path class="cls-1" d="M307.1,38.1h233.61v83.43c0,64.47-52.34,116.8-116.8,116.8h0c-64.47,0-116.8-52.34-116.8-116.8V38.1h0Z" transform="translate(285.69 562.11) rotate(-90)"/>
    <path class="cls-1" d="M144.7,92.08h233.61v1.28c0,64.47-52.34,116.8-116.8,116.8h0c-64.47,0-116.8-52.34-116.8-116.8v-1.28h0Z" transform="translate(32.84 348.45) rotate(-70.82)"/>
    <circle class="cls-1" cx="150.54" cy="119.13" r="56.65"/>
  </g>
</svg>